<?xml version="1.0" encoding="utf-8"?>
<!-- Generator: Adobe Illustrator 23.0.3, SVG Export Plug-In . SVG Version: 6.00 Build 0)  -->
<svg version="1.1" id="Calque_1" xmlns="http://www.w3.org/2000/svg" xmlns:xlink="http://www.w3.org/1999/xlink" x="0px" y="0px"
	 viewBox="0 0 24 24" style="enable-background:new 0 0 24 24;" xml:space="preserve">
<style type="text/css">
	.st0{fill:none;}
	.st1{opacity:0.15;}
</style>
<g>
	<path class="st0" d="M7.7,12C7.7,9.3,9,6.9,11,5.4C10.2,5,9.2,4.8,8.1,4.8c-4,0-7.2,3.2-7.2,7.2s3.2,7.2,7.2,7.2c1,0,2-0.2,2.9-0.6
		C9,17.1,7.7,14.7,7.7,12z"/>
	<path class="st0" d="M16.3,12c0,2.7-1.3,5.1-3.4,6.6c0.9,0.4,1.9,0.6,2.9,0.6c4,0,7.2-3.2,7.2-7.2s-3.2-7.2-7.2-7.2
		c-1,0-2,0.2-2.9,0.6C15,6.9,16.3,9.3,16.3,12z"/>
	<ellipse class="st0" cx="12" cy="12" rx="3.4" ry="6.1"/>
	<path class="st1" d="M15.3,12c0,2.6-1.3,4.8-3.4,6.1c0.3,0.2,0.6,0.4,0.9,0.5c2-1.5,3.4-3.9,3.4-6.6c0-2.7-1.3-5.1-3.4-6.6
		c-0.3,0.1-0.6,0.3-0.9,0.5C14,7.2,15.3,9.4,15.3,12z"/>
	<path d="M11,18.6c-0.9,0.4-1.9,0.6-2.9,0.6c-4,0-7.2-3.2-7.2-7.2s3.2-7.2,7.2-7.2c1,0,2,0.2,2.9,0.6C11.3,5.2,11.7,5,12,4.8
		c-1.1-0.6-2.5-1-3.8-1C3.6,3.8,0,7.5,0,12c0,4.5,3.7,8.2,8.2,8.2c1.4,0,2.7-0.4,3.8-1C11.7,19,11.3,18.8,11,18.6z"/>
	<path d="M15.8,4.8c4,0,7.2,3.2,7.2,7.2s-3.2,7.2-7.2,7.2c-1,0-2-0.2-2.9-0.6c-0.3,0.2-0.6,0.4-0.9,0.6c1.1,0.6,2.5,1,3.8,1
		c4.5,0,8.2-3.7,8.2-8.2c0-4.5-3.7-8.2-8.2-8.2c-1.4,0-2.7,0.4-3.8,1c0.3,0.2,0.6,0.4,0.9,0.6C13.8,5,14.8,4.8,15.8,4.8z"/>
	<path d="M8.6,12c0-2.6,1.3-4.8,3.4-6.1c-0.3-0.2-0.6-0.4-0.9-0.5C9,6.9,7.7,9.3,7.7,12c0,2.7,1.3,5.1,3.4,6.6
		c0.3-0.1,0.6-0.3,0.9-0.5C10,16.8,8.6,14.6,8.6,12z"/>
	<path d="M12,18.1c-0.3,0.2-0.6,0.4-0.9,0.5c0.3,0.2,0.6,0.4,0.9,0.6c0.3-0.2,0.6-0.4,0.9-0.6C12.6,18.4,12.3,18.3,12,18.1z"/>
	<path d="M12,5.9c0.3-0.2,0.6-0.4,0.9-0.5C12.6,5.2,12.3,5,12,4.8C11.7,5,11.3,5.2,11,5.4C11.4,5.6,11.7,5.7,12,5.9z"/>
</g>
</svg>
